<svg width="485" height="225" xmlns="http://www.w3.org/2000/svg">
	<rect x="0" y="0" fill="#2E348A" width="485" height="225"/>
	<path fill="#E7E9EE" d="M54.3,200.1c-0.6,0.9-1.1,1.8-1.7,2.7c-6.9,0-13.8-0.1-20.7-0.1c-1.7-0.1-3.4-0.1-3.2-2.6
		c0-18.9,0.1-37.7,0.1-56.6c0-4.1-1.2-8.6,3.9-11c0.9,0.8,1.7,2.1,2.6,2.2c4.3,0.2,8.7,0.2,13.1,0.1c0.7,0,1.8-0.5,2-0.9
		c0.2-0.7-0.1-1.8-0.7-2.3c-0.8-0.6-1.9-1.1-2.9-1.1c-3.7-0.1-7.5-0.2-11.2,0c-1,0-1.9,1-2.9,1.6c-3.6-1.2-4.1-3.9-4-7.4
		c0.2-7.8,0-15.7,0-23.5c0.5-0.5,1.1-1.1,1.6-1.6c15.4,0,30.7,0.1,46.1,0.1c6.8,0,13.4,1.2,19.6,3.9c13,5.7,20.4,19,18.2,32.8
		c-2.1,13.4-14,24.5-27.9,25.5c-7.5,0.6-15,0.4-22.4,0.5c-6.5,0.1-9.5,2.6-9.6,8.9C54,180.9,54.2,190.5,54.3,200.1z M63.2,143.7
		c3.3,0,6.7,0,10,0c5.2,0.5,9.7-0.9,12.7-5.3c5.8-8.4-0.1-19-11.2-19.8c-6.1-0.4-12.2-0.1-18.3,0c-0.7,0-2.1,0.8-2.1,1.2
		c0,1.8,0.3,3.5,0.5,5.3c-0.7,2.1-1.4,4.2-2,6.4c-0.2,0.7-0.2,1.5,0,2.1c0.4,1.5,1.1,2.9,1.6,4.3c-0.5,5.8-0.5,5.8,5.2,5.8
		C60.7,143.8,61.9,143.7,63.2,143.7z"/>
	<path fill="#A00580" d="M123.9,65.4c0,6.1-0.1,12.2,0,18.4c0,2.4-0.7,3.5-3.2,3.3c-2.4-0.1-4.8-0.1-7.1,0c-2.3,0.1-3-0.9-3-3.1
		c0.1-6.2,0.1-12.5,0.1-18.7c-0.1-6.6-3.8-11-9.3-11c-5.5,0-9.9,5.2-9.6,11.2c0.3,6.5,4.7,10.9,10.8,10.3c2.4-0.3,2.9,0.4,2.7,2.5
		c0,0.4,0,0.7,0,1.1c0,7.1-2.4,9.2-9.7,8.2c-9.5-1.4-15.5-7.9-17-19.1c-0.8-5.8,0.1-11.5,3.2-16.6c5.8-9.9,18.1-12.1,27-4.7
		c1.6,1.3,2,0.7,2-0.8c-0.1-2.9,1.6-3.1,3.9-3.2c9.4-0.1,9.4-0.2,9.4,9.1C123.9,56.6,123.9,61,123.9,65.4z"/>
	<path fill="#A00580" d="M42.3,46.9c3.6-1.3,6.8-2.7,10.2-3.5c9-2.1,17.2,2.5,18.5,11.6c1.3,9.8,0.8,19.9,1,29.9
		c0,0.7-1.3,1.4-2,2.1c-0.1,0.1-0.2,0-0.4,0c-10.8,1.2-10.8,1.2-10.8-9.4c0-4.6,0-9.2,0-13.9c-0.1-5.3-2.3-8.7-6.3-9.4
		c-3.7-0.7-7.6,0.5-10.2,6.1c-2.2,4.6-7.6,1.3-11.4,1.8c-2.8,0.3-1.9-2.4-1.9-3.9c-0.1-8.6,0.1-17.2-0.1-25.9
		c-0.1-2.9,1-3.6,3.7-3.7c9.9-0.2,9.9-0.3,9.9,9.4C42.3,41.3,42.3,44.4,42.3,46.9z"/>
	<path fill="#4B55B2" d="M192.3,29.1c0.3,3.5,0.5,7,0.7,10.5c0.1,2.3,0.1,4.7,0.1,7c0,3.6-0.1,7.2-0.1,10.9c0,0.7,0.5,1.5,0.8,2.2
		c0.6-0.4,1.3-0.7,1.7-1.3c2.2-2.9,4.2-5.9,6.3-8.8c2.5-5.1,6.6-6.8,12.2-6c2.4,0.4,4.9,0.3,7.4,0.4c-1.4,2-2.7,4-4.1,6
		c-2.7,3.4-5.4,6.9-8.2,10.1c-0.9,1-2.4,2-3.6,2.1c-8.3,0.1-16.7,0-25-0.1c-0.1-0.7-0.1-1.3-0.2-2c0-9.2,0-18.5,0-27.7
		c-0.1-2.1,0.8-3.3,3-3.3c2.3,0,4.5,0,6.8,0C190.8,29.1,191.5,29.1,192.3,29.1z"/>
	<path fill="#4B55B2" d="M180.3,67.8c8.1,0,16.2-0.2,24.3,0c1.3,0,3,0.8,3.9,1.7c4.1,4.6,7.9,9.3,11.8,14c0.6,0.7,0.8,1.7,1.2,2.6
		c-0.8,0.1-1.7,0.4-2.5,0.4c-3.4,0.1-6.7,0.3-10.1,0.1c-1.1,0-2.4-0.7-3.1-1.5c-1.6-1.7-3-3.7-4.4-5.5c-2.3-3.3-4.5-6.6-6.8-9.9
		c-0.2,0.1-0.5,0.2-0.7,0.3c0,3.2,0,6.4,0,9.6c-0.3,7.4-0.3,7.4-8,7.4c-1.6,0-3.2,0-4.9,0c-0.2-3.8-0.5-7.6-0.7-11.4
		C180.2,73,180.3,70.4,180.3,67.8z"/>
	<path fill="#A00580" d="M144.1,85.8c-10.3-3.7-15.6-15.6-12.2-27.6c0.3-1,0.5-2,1-2.8c1.5-2.2,3.1-4.4,4.7-6.6
		c1.6,1.6,3.2,3.3,4.9,4.8c2.9,2.4,3.1,5.1,2.1,8.6c-1.1,3.9-0.5,7.8,1.9,11.3c-0.5,1.3-1.3,2.5-1.5,3.8
		C144.6,80.1,144.4,82.9,144.1,85.8z"/>
	<path fill="#4B55B2" d="M144.1,85.8c0.3-2.8,0.4-5.7,0.9-8.5c0.2-1.3,1-2.6,1.5-3.8c4.8,3.8,7.7,3.5,12.2-0.9
		c0.7-0.7,1.9-1.1,3-1.2c2.7-0.2,5.5,0,8.2-0.1c2.8-0.1,3.2,1.2,2.3,3.5c-2.7,6.9-7.7,11.2-14.9,12.1
		C153,87.4,148.5,86.2,144.1,85.8z"/>
	<path fill="#4B55B2" d="M165.4,59.3c-2.9,0.4-6.2,0.1-8.4-3.5c-0.5-0.9-2.1-1.5-3.2-1.5c-5.8,0.1-6.9-5.5-10.2-8.4
		c-0.1-0.1,0.4-1.5,1-1.8c9.6-5.3,25.2,1.6,28.1,12.3c0.6,2.1,0.2,3.1-2.2,2.9C169,59.2,167.5,59.3,165.4,59.3z"/>
	<path fill="#A00580" d="M42.3,77.5c0,9.7,0,9.6-9.6,9.7c-3.1,0-4.2-0.9-4-4c0.2-4.2,0.1-8.5,0-12.7c0-2.1,0.7-3.1,2.8-2.8
		c0.1,0,0.2,0,0.4,0C42.3,67.2,42.3,67.2,42.3,77.5z"/>
	<path fill="#E7E9EE" d="M361.7,99.5c1,0,2,0.1,3,0.1c-0.2,1.2-0.2,2.5-0.5,3.7c-4.9,19-9.9,38-14.9,56.9
		c-1.3,4.9-1.8,10.3-4.2,14.6c-2,3.7-3.9,6.4-2.9,11c0.6,2.8-1,6-1.6,9c-0.8,2-1.1,4.5-4.3,3.9c-0.5,0-1,0-1.5,0c-0.7,0-1.5,0-2.2,0
		c-2,0-4,0-6,0c-0.4,0-0.7-0.2-1.1-0.1c-3.7,0.7-5.9-0.8-6.5-4.5c-4.7-15.7-9.3-31.4-14.1-47c-0.4-1.5-1.4-2.9-2.5-4.1
		c-2.2-2.5-4.8-1.9-6,1.4c-0.9,2.7-1.7,5.5-2.5,8.2c-4.2,14.6-8.3,29.1-12.5,43.7c-0.5,2.5-2.4,2.4-4.3,2.5c-2.5,0-5,0-7.5,0
		c-7.9-0.4-7.9-0.4-10.1-8.4c-5.2-19.1-10.3-38.2-15.6-57.3c-0.7-2.7-0.4-3.7,2.4-3.6c5.8,0,11.5,0,17.3,0c0.9,1.8,1.8,3.6,2.7,5.4
		c0.1,0.3,0.2,0.5,0.3,0.8c0.3,1.7,0.7,3.4,1,5.2c0.2,0.5,0.3,1,0.5,1.6c0.3,1.2,0.6,2.4,0.8,3.7c0.3,1.7,0.3,3.5,0.8,5.1
		c0.3,1,1.2,2.3,2.1,2.5c0.7,0.2,2.2-0.8,2.6-1.6c1.1-2.1,1.7-4.5,2.6-6.8c2-7,4-14,6.1-20.9c0.2-0.5,0.4-1,0.6-1.5
		c0.1-0.5,0.2-1,0.4-1.4c0.4-1.3,0.8-2.6,1.1-3.8c0.1-0.5,0.2-0.9,0.4-1.4c0.9-3.3,1.9-6.6,2.8-9.8c0.3-0.8,0.9-1.6,0.9-2.4
		c0.2-3.8,2.5-4.9,5.8-4.5c4,0,8,0,12,0c1.1,0.8,2.1,1.6,3.2,2.4c0.1,0.3,0.3,0.6,0.4,0.9l-0.1-0.1c3.4,11.5,6.9,23,10.3,34.5
		c0.1,0.5,0.3,0.9,0.4,1.4c1.8,4.7,3.4,9.4,5.4,14.1c0.9,2,2.2,2.2,2.7,0.8c1.8-4.5,3.8-9,5.2-13.6c1.4-4.5,2.4-9.1,3.4-13.7
		c1.9-8.1,3.7-16.2,5.6-24.3c0.5-0.8,1-1.6,1.5-2.3C350.7,99.5,356.2,99.5,361.7,99.5z"/>
	<path fill="#E7E9EE" d="M136,202.6c-4.6,0.8-4.8-2.2-4.6-5.5c0-1.4,0.1-2.7,0.1-4.1c0-16.7,0-33.4,0-50.1c0-1.7-0.4-3.7,2.4-3.5
		c6,0.1,12.1,0.3,18.1,0.1c1,0,1.9-1.4,2.8-2.1c4.7,3,9.8,2.2,14.9,1.9c1,0,2,0,3,0c2.6,0,5.2,0.3,7.8,0.1c4.9-0.3,9.2-2.7,10-7.5
		c0.9-5,4.2-6.1,7.8-7.5c2.4-1,4.9-1.8,7.2-3c1.7-1,3.1-2.5,4.6-3.8c0.6,0.2,1.2,0.8,1.6,0.7c4.5-1.3,4.8,2.2,4.9,4.8
		c0.1,3.2,0,6.6-1.2,9.5c-2,4.6-5,8.6-7.3,13c-0.6,1.1-0.5,3.3,0.2,4.2c1.9,2.3,4.7,3.9,6.5,6.3c2.1,2.8,4.1,6,5,9.4
		c2.8,10.6-2,23-11.1,29.2c-8.6,5.9-18.3,8.2-28.7,8.1C165.4,202.7,150.7,202.7,136,202.6z M180.3,182.7c2.2-0.2,4.5-0.2,6.6-0.8
		c5.6-1.6,10-7.6,9.8-12.7c-0.2-4.6-3.6-8.4-9.9-9.6c-4.6-0.9-9.3-0.6-14-0.8c-1,0-2,0-3,0c-3.1-0.1-6.2,0-9.3-0.2
		c-2.2-0.1-3.1,0.5-3,2.9c0.2,4,0,8,0,11.9c0.1,9.8,0.1,9.8,10.1,9.2C171.8,182.7,176,182.7,180.3,182.7z"/>
	<path fill="#E7E9EE" d="M131.4,102.6c0.1-1.5-0.1-3.3,2.4-3.1c1.4,0,2.7,0.1,4.1,0.1c16.7,0,33.4-0.1,50.2,0
		c8.2,0,15.3,2.8,21.2,8.6c2.3,2.3,5.1,4.6,1.3,7.9c-0.2,0.2-0.3,0.4-0.4,0.6c-1.8,0.1-3.8-0.1-5.5,0.5c-3.6,1.2-7.2,2.7-10.7,4.3
		c-2.2,1-3.8,1.3-6-0.4c-1.8-1.5-4.5-2.5-6.8-2.6c-7.2-0.5-14.4-0.5-21.6-0.6c-0.7,0-2.1,1.3-2.1,2.1c-0.2,3.2,0,6.4,0.1,9.7
		c0,1,0,2,0.1,3c0,2-1.3,2.5-3,2.4c-6.5,0-13.1,0-19.6,0c-2.9,0.4-3.7-0.9-3.6-3.7C131.6,121.8,131.5,112.2,131.4,102.6z"/>
	<path fill="#E7E9EE" d="M378.8,188.2c0.1-0.3,0.2-0.5,0.4-0.8c1.6-2,3.3-4.1,4.9-6.1c0.1-0.4,0.2-0.8,0.3-1.1
		c2.8-2.3,5.5-4.6,8.3-6.9c0.7,0.1,1.3,0.1,2,0.2c5.8,6.4,13.3,8.9,21.7,9.5c1.4,0.1,2.7,1.2,4,1.8l0,0.1c-0.2,0.4-0.5,0.8-0.7,1.2
		c0,3.7-0.2,7.5-0.1,11.2c0,0.7,0.8,1.4,1.2,2.1c-0.4,2.5-1.8,3.7-4.3,3.5c-3.6-0.3-7.2-0.4-10.8-0.8c-10.1-1.3-18.9-5.9-27.2-11.7
		l-0.2,0.2l0.1-0.2c-0.1-0.4-0.2-0.9-0.2-1.3c0,0,0-0.1,0-0.1C378.4,188.6,378.6,188.4,378.8,188.2z"/>
	<path fill="#E7E9EE" d="M262,116.1c0.1,0.5,0.1,1,0.2,1.5c0.1,0.3,0.3,0.6,0.4,0.9c0.1,0.9,0.3,1.9,0.4,2.8
		c0.1,0.3,0.2,0.6,0.3,0.8c-0.2,0.8-0.5,1.5-0.7,2.3c-5.8,0-11.5,0-17.3,0c-3.3,0.4-4.6-1.2-5.3-4.4c-1.1-5.3-2.9-10.5-4.3-15.7
		c-1.2-4.5-1.1-4.5,3.5-4.9c2.3,0,4.5,0,6.8,0c1.4,0,2.7,0.1,4.1,0.1c7.8,0,7.8,0,9.6,7.5c0.2,0.5,0.4,1.1,0.5,1.6
		c-0.1,0.2-0.1,0.4,0.1,0.6C261,111.6,261.5,113.9,262,116.1z"/>
	<path fill="#292C6A" d="M285.1,117.6c-0.4,1.3-0.8,2.6-1.1,3.8C284.3,120.2,284.7,118.9,285.1,117.6z"/>
	<path fill="#292C6A" d="M268,142.5c-0.2-0.5-0.3-1-0.5-1.6C267.6,141.4,267.8,141.9,268,142.5z"/>
	<path fill="#292C6A" d="M283.6,122.9c-0.2,0.5-0.4,1-0.6,1.5C283.2,123.9,283.4,123.4,283.6,122.9z"/>
	<path fill="#292C6A" d="M260.4,108.8c-0.2-0.5-0.4-1.1-0.5-1.6C260.1,107.7,260.3,108.2,260.4,108.8z"/>
	<path fill="#2E348A" d="M378.8,188.2c-0.2,0.2-0.3,0.4-0.5,0.7C378.4,188.6,378.6,188.4,378.8,188.2z"/>
	<path fill="#292C6A" d="M266.5,135.8c-0.1-0.3-0.2-0.5-0.3-0.8C266.3,135.2,266.4,135.5,266.5,135.8z"/>
	<path fill="#292C6A" d="M263.5,122.3c-0.1-0.3-0.2-0.6-0.3-0.8C263.2,121.7,263.3,122,263.5,122.3z"/>
	<path fill="#292C6A" d="M262.7,118.6c-0.1-0.3-0.3-0.6-0.4-0.9C262.4,118,262.5,118.3,262.7,118.6z"/>
	<path fill="#292C6A" d="M310.6,102.8c-0.1-0.3-0.3-0.6-0.4-0.9C310.3,102.2,310.5,102.5,310.6,102.8z"/>
	<path fill="#57C6D1" d="M325.7,32.4c0,5.2,0,10.4,0,15.3c3.3-1.4,6.6-3.4,10-4c10.9-2,19.1,5,19.2,16.2c0.1,8.9,0.1,17.7,0.1,26.6
		c-3.9,0.2-7.7,0.5-11.6,0.6c-0.4,0-1.1-1.1-1.2-1.8c-0.2-1.3-0.1-2.7-0.2-4.1c0-6.1,0.2-12.2,0.1-18.3c-0.1-4.7-2.9-7.8-6.9-8.6
		c-3.4-0.7-7.8,1-8.6,4.4c-1,4.2-3.7,3.8-6.6,3.8c-0.9,0-1.7,0-2.6,0c-5.1,0-5.1,0-5.1-5.3c0-8.5-0.1-17-0.1-25.5
		c-0.1-1.7,0.8-2.3,2.5-2.3c2.7,0.1,5.4,0.2,8.1,0C325.2,29.1,325.8,30.3,325.7,32.4z"/>
	<path fill="#57C6D1" d="M426.8,87c-3.1,0-6.2-0.2-9.3,0c-3,0.2-4.1-0.8-4-3.9c0.2-11.1,0.1-22.1,0.1-33.2c0-1.9-0.1-3.7-0.1-5.6
		c1-0.3,2-0.6,3-0.9c1.7,0,3.5,0.2,5.2,0.1c3.4-0.3,6.4-0.2,5.3,5.3c1.2-1,1.8-1.6,2.5-2.1c9.4-7.4,23.3-2.9,26.5,8.6
		c1.7,6,0.9,7-5.2,7c-1.5,0-3.1,0.3-4.5-0.1c-1.2-0.3-2.3-1.2-3.2-2.1c-1.3-1.4-2.1-3.5-3.7-4.5c-5.7-3.6-12.2,0.2-12.3,7.1
		C426.9,70.8,426.9,78.9,426.8,87C426.8,87.1,426.8,87,426.8,87z"/>
	<path fill="#57C6D1" d="M282.9,34.6c0.3-0.6,0.6-1.8,0.9-1.8c3.9-0.1,7.7,0,11.6,0.1c0.2,0,0.4,0.6,0.6,0.9
		c-0.1,1.6-0.2,3.2-0.2,4.8c0,5.2-0.5,5,4.8,4.7c3.3-0.2,4.3,0.9,4.2,4.2c-0.2,6.2,0,6.2-6.2,6.5c-2.1,0.1-2.9,0.7-2.8,2.8
		c0.1,4.2,0,8.5,0,12.7c0,5.7,0.4,6.1,6.1,6.2c2.4,0,3,0.9,2.9,3.1c-0.1,2.5,0,5,0.1,7.5c-1.3,0.2-2.5,0.5-3.8,0.7
		c-0.9-0.1-1.7-0.2-2.6-0.2c-11.3-0.6-15.3-4.9-15.4-16.1c0-4.5-0.1-9,0-13.5c0-2-0.2-3.5-2.8-3.2c-2,0.2-2.6-0.8-2.5-2.7
		c0.1-1.9-0.1-3.8,0.1-5.6c0.1-0.8,1.2-2.2,1.7-2.1c3.4,0.2,3.6-1.8,3.5-4.3C282.9,37.9,282.9,36.2,282.9,34.6z"/>
	<path fill="#E7E9EE" d="M425.5,120.2c-0.5-0.1-1.1-0.1-1.6-0.2c-0.5,0-1-0.1-1.4-0.1c-1.5-0.2-3.1-0.5-4.6-0.7
		c-0.7-0.8-1.5-1.5-2.2-2.3c-4.1-4-8.2-7.9-12.3-11.9c-0.6-0.8-1.2-1.5-1.8-2.3c0.2,0,0.5-0.1,0.7-0.2c4.9-1,9.7-2.4,14.6-2.8
		c13.6-1.3,26.1,2.1,37.8,9c0.2,0.3,0.4,0.5,0.6,0.8c-0.1,0.2-0.2,0.4-0.2,0.6c-0.2,0.2-0.4,0.5-0.6,0.7c-2.9,2.9-5.7,5.9-8.7,8.7
		c-2.2,2.1-4.6,4-6.9,6.1c-1.2-0.7-2.4-1.4-3.6-2.1C432.1,122.4,428.8,121.3,425.5,120.2z"/>
	<path fill="#57C6D1" d="M271.1,79c0,1.7-0.5,3.6,0,5.2c0.7,2.4-0.1,2.9-2.2,2.9c-2.9,0-5.7,0.1-8.6-0.1c-0.8,0-1.5-0.8-2.3-1.3
		c0-7.2,0.3-14.4,0.1-21.7c-0.2-6-4.8-9.9-11.2-9.9c0.1-3.7,0.1-7.4,0.2-11c3.6,1.5,7.1,3.1,10.6,4.5c0.4-0.9,1.3-3.7,1.9-3.6
		c3.8,0.3,8-2.1,11.5,1.2C271.1,56.4,271.1,67.7,271.1,79z"/>
	<path fill="#4B55B2" d="M247.2,43.1c-0.1,3.7-0.1,7.4-0.2,11c-6.6,3.2-8.7,6.4-8.2,12.3c0.3,3.7,2.4,6.4,5.1,8.8
		c-0.2,4-0.5,8-0.7,12c-6.3,0.3-10.8-2.9-13.8-8c-5.5-9.5-5.4-19.3,0.5-28.7C233.9,44.3,240,42.1,247.2,43.1z"/>
	<path fill="#57C6D1" d="M449.5,88.7c-0.2-0.1-0.4-0.3-0.6-0.4c-1.7-0.6-4.3-0.8-5-2c-0.9-1.5-0.4-3.9-0.4-5.9c0-3.4,0.1-6.7,0-10.1
		c-0.1-2.1,0.8-2.9,2.8-2.8c1.5,0.1,3,0,4.5,0c6,0,6,0,6,6.2c0,4.5,0.2,9,0.4,13.4C454.9,89.2,452.4,89.8,449.5,88.7z"/>
	<path fill="#57C6D1" d="M312.3,87.1c0-5.5,0.1-10.9,0-16.4c0-2.1,0.8-2.7,2.8-2.8c10.6-0.6,10.5-0.7,10.6,9.6
		c0,2.7,0.1,5.4,0.2,8.2c-0.9,0.5-1.9,1.4-2.8,1.4C319.4,87.3,315.8,87.1,312.3,87.1z"/>
	<path fill="#57C6D1" d="M244,75.2c1.5,0.3,3.2,1.1,4.6,0.9c3.3-0.5,3.7,1.1,3.6,3.8c-0.1,1.7,0.1,3.4,0.2,5.1c-2.5,3-5.9,2-9.1,2.2
		C243.5,83.2,243.8,79.2,244,75.2z"/>
	<path fill="#A00580" d="M32.7,132.6c-0.1-0.2-0.1-0.4,0-0.6c1-0.5,1.9-1.5,2.9-1.6c3.7-0.2,7.5-0.2,11.2,0c1,0,2.2,0.5,2.9,1.1
		c0.5,0.4,0.8,1.6,0.7,2.3c-0.1,0.5-1.3,0.9-2,0.9c-4.4,0.1-8.7,0.2-13.1-0.1C34.4,134.7,33.6,133.3,32.7,132.6z"/>
	<path fill="#57C6D1" d="M420.2,184.7c0.8-0.4,1.7-0.7,2.5-1.1c1.9,2.2,1.8,13.4-0.1,15.3c-0.1,0.1-0.2,0.1-0.3,0.2
		c-0.6,0-1.1,0.1-1.7,0.1c-0.4-0.7-1.2-1.4-1.2-2.1c-0.1-3.7,0-7.5,0.1-11.2C419.8,185.6,420,185.2,420.2,184.7L420.2,184.7z"/>
	<path fill="#4B55B2" d="M420.2,184.8c-0.2,0.4-0.5,0.8-0.7,1.2C419.8,185.6,420,185.2,420.2,184.8z"/>
	<path fill="#E7E9EE" d="M422.4,199.2c0.1-0.1,0.2-0.1,0.3-0.2c1.9-2,1.9-13.2,0.1-15.3c0.9-1,1.7-2.4,2.8-3
		c6.7-3.6,7.6-12.8,1-16.2c-5.2-2.7-11.2-3.9-16.8-5.8c-4.6-1.6-9.3-2.8-13.7-5c-15.2-7.4-19.5-23.4-10.6-37.7
		c0.4-0.6,0.7-1.3,1.1-1.9c1.7-1.8,3.3-3.5,5-5.3c2.5-1,4.4-5.1,7.8-1.5c4.1,4,8.2,7.9,12.4,11.9c0.1,0.2,0.3,0.2,0.5,0.2
		c1.7,2.9-2.2,2.4-2.5,4c-3.2,2.3-3.9,5.5-2.9,9.1c1.4,5.3,5.4,7.3,10.3,8.1c0.9,0.2,1.8,0.4,2.7,0.6c0.3,0.1,0.6,0.2,1,0.3
		c5.7,1.8,11.4,3.5,17,5.5c5.5,1.9,10.6,5.1,13.6,10.1c2.4,4,4.4,8.8,4.6,13.3c0.2,6.1-1.2,12.5-5.6,17.3c-3,3.2-7.1,5.3-10.1,8.5
		c-3.6,3.9-8.3,4.5-13,5.6C425,202.1,423.4,201.4,422.4,199.2z"/>
	<path fill="#4B55B2" d="M425.5,120.2c3.3,1.1,6.6,2.2,9.9,3.3C432.1,122.4,428.8,121.3,425.5,120.2z"/>
	<path fill="#4B55B2" d="M422.5,119.8c0.5,0,1,0.1,1.4,0.1C423.4,119.9,422.9,119.9,422.5,119.8z"/>
	<path fill="#4B55B2" d="M420.9,141.4c-0.3-0.1-0.6-0.2-1-0.3C420.3,141.2,420.6,141.3,420.9,141.4z"/>
	<path fill="#57C6D1" d="M406.2,65.2c0.1,12-6.5,19.1-19.4,21.2c-11.6,1.9-21.4-4-24.5-14.9c-4.8-17,9.4-31.5,26.7-27.6
		c4.5,1.1,8.4,2.8,11.7,6c1.7,1.7,1.8,2.8-0.6,3.8c-2.4,1-4.8,2.2-7.2,3c-1.1,0.3-2.7,0.2-3.7-0.4c-6.9-3.9-13.6-0.4-14,7.5
		c-0.1,2-0.1,4.1,0.4,5.9c1,3.8,4.8,6.2,8.9,6c3.6-0.2,8-3.6,7.8-7.3c-0.4-5.5,2.7-7.1,6.9-8.7c6.5-2.5,6.8-2.5,7,4.7
		C406.2,64.7,406.2,65,406.2,65.2z"/>
	<path fill="#57C6D1" d="M415.6,116.9c-1.3,0.7-2.5,1.5-3.8,2.2c-4.1-4-8.2-7.9-12.4-11.9c1.3-0.7,2.6-1.5,3.9-2.2
		C407.4,108.9,411.5,112.9,415.6,116.9z"/>
</svg>
